<?xml version="1.0"?><!DOCTYPE svg PUBLIC '-//W3C//DTD SVG 1.0//EN'          'http://www.w3.org/TR/2001/REC-SVG-20010904/DTD/svg10.dtd'><svg xmlns:xlink="http://www.w3.org/1999/xlink" style="fill-opacity:1; color-rendering:auto; color-interpolation:auto; text-rendering:auto; stroke:black; stroke-linecap:square; stroke-miterlimit:10; shape-rendering:auto; stroke-opacity:1; fill:black; stroke-dasharray:none; font-weight:normal; stroke-width:1; font-family:'Dialog'; font-style:normal; stroke-linejoin:miter; font-size:12px; stroke-dashoffset:0; image-rendering:auto;" xmlns="http://www.w3.org/2000/svg"><!--Generated by the Batik Graphics2D SVG Generator--><defs id="genericDefs"  /><g  ><g style="fill:rgb(68,68,68); text-rendering:optimizeLegibility; stroke-width:15.4765; stroke-linecap:round; stroke:rgb(68,68,68); stroke-linejoin:round;"    ><line y2="631" style="fill:none;" x1="543" x2="130" y1="869"      /><line y2="565" style="fill:none;" x1="543" x2="168" y1="781"      /><line y2="631" style="fill:none;" x1="543" x2="957" y1="869"      /><line y2="869" style="fill:none;" x1="957" x2="1370" y1="631"      /><line y2="935" style="fill:none;" x1="957" x2="1332" y1="719"    /></g  ></g><circle cx="129.9075020196833" cy="630.6631431228645" r="2" fill="red" border="blue" /><circle cx="543.302500673228" cy="869.3368568771336" r="2" fill="red" border="blue" /><circle cx="956.6974993267728" cy="630.6631431228653" r="2" fill="red" border="blue" /><circle cx="1370.092497980317" cy="869.3368568771355" r="2" fill="red" border="blue" /></svg>
<?xml version="1.0"?><!DOCTYPE svg PUBLIC '-//W3C//DTD SVG 1.0//EN'          'http://www.w3.org/TR/2001/REC-SVG-20010904/DTD/svg10.dtd'><svg xmlns:xlink="http://www.w3.org/1999/xlink" style="fill-opacity:1; color-rendering:auto; color-interpolation:auto; text-rendering:auto; stroke:black; stroke-linecap:square; stroke-miterlimit:10; shape-rendering:auto; stroke-opacity:1; fill:black; stroke-dasharray:none; font-weight:normal; stroke-width:1; font-family:'Dialog'; font-style:normal; stroke-linejoin:miter; font-size:12px; stroke-dashoffset:0; image-rendering:auto;" xmlns="http://www.w3.org/2000/svg"><!--Generated by the Batik Graphics2D SVG Generator--><defs id="genericDefs"  /><g  ><g style="fill:rgb(68,68,68); text-rendering:optimizeLegibility; stroke-width:6.9922; stroke-linecap:round; stroke:rgb(68,68,68); stroke-linejoin:round;"    ><line y2="872" style="fill:none;" x1="1281" x2="1441" y1="727"      /><line y2="897" style="fill:none;" x1="1273" x2="1418" y1="766"      /><path style="fill:none;" d="M1281.1444 726.9617 C1279.0765 720.5432 1270.5902 716.1926 1264.1716 718.2604 C1257.7532 720.3283 1253.4025 728.8146 1255.4703 735.2332 C1257.5382 741.6517 1253.1875 750.138 1246.769 752.2059 C1240.3505 754.2737 1231.8641 749.923 1229.7963 743.5046 C1227.7285 737.0861 1219.2421 732.7354 1212.8236 734.8032 C1206.405 736.8711 1202.0544 745.3574 1204.1223 751.7759 C1206.1901 758.1945 1201.8395 766.6808 1195.4209 768.7487 C1189.0024 770.8165 1180.5161 766.4659 1178.4482 760.0474 C1176.3804 753.6288 1167.894 749.2782 1161.4755 751.346 C1155.057 753.4139 1150.7063 761.9003 1152.7742 768.3187 C1154.842 774.7372 1150.4913 783.2236 1144.0729 785.2914 C1137.6543 787.3593 1129.168 783.0087 1127.1001 776.5901 C1125.0322 770.1716 1116.5459 765.821 1110.1274 767.8889 C1103.7089 769.9567 1099.3583 778.4431 1101.426 784.8616 C1103.4939 791.28 1099.1433 799.7664 1092.7247 801.8343 C1086.3063 803.9021 1077.8198 799.5515 1075.7521 793.1329"      /><line y2="648" style="fill:none;" x1="1076" x2="916" y1="793"      /><line y2="635" style="fill:none;" x1="1084" x2="952" y1="754"      /><line y2="434" style="fill:none;" x1="916" x2="940" y1="648"      /><line y2="347" style="fill:none;" x1="940" x2="742" y1="434"      /><line y2="388" style="fill:none;" x1="903" x2="751" y1="455"      /><line y2="506" style="fill:none;" x1="742" x2="598" y1="347"      /><line y2="693" style="fill:none;" x1="598" x2="706" y1="506"      /><line y2="654" style="fill:none;" x1="640" x2="723" y1="511"      /><line y2="693" style="fill:none;" x1="916" x2="706" y1="648"      /><line y2="854" style="fill:none;" x1="706" x2="634" y1="693"      /><line y2="913" style="fill:none;" x1="591" x2="403" y1="893"      /><line y2="1110" style="fill:none;" x1="403" x2="316" y1="913"      /><line y2="1106" style="fill:none;" x1="427" x2="355" y1="945"      /><path style="fill:none;" d="M315.7905 1110.1675 C315.0827 1103.4613 307.6687 1097.463 300.9626 1098.1708 C294.2564 1098.8787 288.2581 1106.2926 288.966 1112.9988 C289.6738 1119.705 283.6755 1127.1189 276.9694 1127.8267 C270.2632 1128.5345 262.8493 1122.5363 262.1414 1115.8301 C261.4336 1109.124 254.0196 1103.1257 247.3135 1103.8335 C240.6074 1104.5414 234.6091 1111.9553 235.3169 1118.6615 C236.0247 1125.3676 230.0264 1132.7816 223.3203 1133.4894 C216.6142 1134.1973 209.2002 1128.199 208.4924 1121.4928 C207.7845 1114.7867 200.3705 1108.7883 193.6644 1109.4962 C186.9583 1110.2041 180.96 1117.618 181.6678 1124.3242 C182.3756 1131.0303 176.3773 1138.4443 169.6712 1139.1521 C162.9651 1139.86 155.5511 1133.8617 154.8433 1127.1555 C154.1354 1120.4493 146.7215 1114.451 140.0153 1115.1589 C133.3092 1115.8667 127.3109 1123.2808 128.0187 1129.9868"      /><path d="M614.5307 913.4279 L604.8428 913.4279 L604.8428 867.2628 L631.295 867.2628 L631.295 875.2659 L614.5307 875.2659 L614.5307 887.1441 L630.1156 887.1441 L630.1156 895.1472 L614.5307 895.1472 L614.5307 913.4279 Z" style="stroke-width:1; stroke-linecap:square; stroke:none; stroke-linejoin:miter;"      /><path d="M75.5658 1118.7496 Q69.9216 1118.7496 66.8888 1122.9618 Q63.9403 1127.174 63.9403 1134.4188 Q63.9403 1141.8322 66.7203 1145.8759 Q69.5004 1149.9196 75.5658 1149.9196 Q78.4301 1149.9196 81.2101 1149.3298 Q83.9901 1148.6559 87.3598 1147.4764 L87.3598 1155.6481 Q84.3271 1156.9116 81.2943 1157.5013 Q78.3459 1158.0911 74.6392 1158.0911 Q67.5628 1158.0911 62.9294 1155.1426 Q58.2961 1152.1941 56.1057 1146.8867 Q53.9154 1141.4952 53.9154 1134.4188 Q53.9154 1127.4266 56.3585 1122.0352 Q58.8858 1116.6436 63.6876 1113.6108 Q68.5737 1110.5781 75.5658 1110.5781 Q79.0198 1110.5781 82.4738 1111.5048 Q85.9277 1112.3472 89.0447 1113.7793 L85.9277 1121.7823 Q83.3162 1120.5188 80.7047 1119.6763 Q78.0931 1118.7496 75.5658 1118.7496 ZM105.996 1157.4171 L96.3923 1157.4171 L96.3923 1108.2194 L105.996 1108.2194 L105.996 1157.4171 Z" style="stroke-width:1; stroke-linecap:square; stroke:none; stroke-linejoin:miter;"    /></g  ></g><circle cx="1441.1465199093946" cy="871.7511697945679" r="2" fill="red" border="blue" /><circle cx="1281.1444006573392" cy="726.9617547837755" r="2" fill="red" border="blue" /><circle cx="1075.7520294328779" cy="793.132947210006" r="2" fill="red" border="blue" /><circle cx="915.7499101808228" cy="648.343532199214" r="2" fill="red" border="blue" /><circle cx="939.596347290358" cy="433.57781847984484" r="2" fill="red" border="blue" /><circle cx="741.6805647927206" cy="346.84658194676564" r="2" fill="red" border="blue" /><circle cx="597.8566926935678" cy="506.29578342082806" r="2" fill="red" border="blue" /><circle cx="705.7509150415651" cy="693.1740583706928" r="2" fill="red" border="blue" /><circle cx="618.0688983221748" cy="890.3453463624714" r="2" fill="red" border="blue" /><circle cx="403.4725456647021" cy="912.9961364243168" r="2" fill="red" border="blue" /><circle cx="315.79052894531173" cy="1110.1674244160952" r="2" fill="red" border="blue" /><circle cx="101.1941762878389" cy="1132.8182144779403" r="2" fill="red" border="blue" /></svg>
